<svg width="150" height="150" viewBox="0 0 150 150" fill="none" xmlns="http://www.w3.org/2000/svg"><rect width="150" height="150" fill="#0E2B54"/>
<path d="M46.804 92V36.932H55.54L77.224 70.706H72.778L94.384 36.932H103.198V92H90.952V57.602L93.136 58.148L79.018 80.144H70.906L56.866 58.148L58.972 57.602V92H46.804Z" fill="white"/>
<path d="M48.3661 26.3911L76 26.4011L104.5 26.3911C112.5 28.3634 115.5 30.7241 115.5 46.0343V88.2241C115 96.7241 115.5 102.142 101 105.224L82.5 105.807C85 115.224 85 115.224 87 123.724C74.5 119.724 67.5 112.724 61 107.224L57.5 106.724C46 105.224 39.5 101.5 34.5 89.5L34 46.0413C34.0019 33.5381 36.2873 26.3911 48.3661 26.3911ZM102.628 18.2241H48.3719H48.3661V18.2441C40.9608 18.2461 34.2441 21.3662 29.3907 26.3911L29.4004 26.4011C24.5393 31.439 24.0019 38.3928 24 46.0413V84.7241V86.2241C24.0039 94.4021 27.0119 101.467 34.3224 106.444C41.131 111.078 51.5647 114.223 58.5 114.224C61 116.224 68.1434 122.4 71.5 124.724C76.5 127.224 78 128.724 84 130.724L88 131.724H92C94.4595 130.724 95.7577 130.384 94.5 124.724C93.5 120.224 91.9824 115.954 92.0405 112.724L103 113C110 113 116.756 110.832 121.61 105.807C125.554 101.724 126.5 95.7241 126.5 86.7241L126.5 73.7241V42.7241C126.499 35.2158 126.577 31.6973 121.882 26.6964C121.796 26.5923 121.707 26.4902 121.612 26.3921C116.757 21.3662 110.039 18.2441 102.632 18.2431V18.2241H102.628Z" fill="white"/>
</svg>

